<?xml version="1.0" encoding="utf-8"?>
<svg version="1.1" xmlns="http://www.w3.org/2000/svg" x="0px" y="0px" width="600px" height="118px">
<path fill="#dddbd9" d="M135.874,72.909l-6.833-0.605c-5.363-0.432-7.439-2.595-7.439-6.228c0-4.324,3.286-7.006,9.515-7.006
	c4.412,0,8.304,1.038,11.331,3.373l4.066-4.065c-3.807-3.113-9.256-4.583-15.31-4.583c-9.083,0-15.657,4.671-15.657,12.455
	c0,7.006,4.412,10.726,12.716,11.418l7.006,0.605c4.93,0.433,7.093,2.509,7.093,6.228c0,5.017-4.325,7.526-11.332,7.526
	c-5.276,0-9.861-1.385-13.235-4.931l-4.152,4.153c4.671,4.498,10.294,6.141,17.473,6.141c10.293,0,17.299-4.758,17.299-12.974
	C148.416,76.456,143.313,73.602,135.874,72.909z M189.132,53.794c-6.828,0-11.129,1.347-14.898,6.118
	c-0.051,0.065,4.086,4.088,4.086,4.088c2.508-3.546,5.276-4.844,10.726-4.844c7.785,0,10.899,3.114,10.899,9.341v4.065h-12.802
	c-9.515,0-14.705,4.845-14.705,12.283c0,3.373,1.124,6.573,3.2,8.65c2.682,2.768,6.142,3.892,12.024,3.892
	c5.709,0,8.822-1.124,12.283-4.585v4.065h6.228V67.979C206.171,58.723,200.549,53.794,189.132,53.794z M199.944,81.818
	c0,3.548-0.692,5.969-2.163,7.353c-2.681,2.595-5.881,2.855-9.515,2.855c-6.747,0-9.774-2.336-9.774-7.267
	c0-4.929,3.114-7.524,9.515-7.524h11.937V81.818z M230.564,59.33c4.065,0,6.574,1.21,9.774,4.757c0,0,4.17-4.052,4.135-4.089
	c-4.367-4.671-8.074-6.203-13.91-6.203c-10.726,0-18.857,7.266-18.857,21.798c0,14.531,8.131,21.798,18.857,21.798
	c5.882,0,9.601-1.558,14.013-6.314l-4.239-4.065c-3.2,3.546-5.709,4.844-9.774,4.844c-4.152,0-7.612-1.644-9.86-4.844
	c-1.99-2.768-2.768-6.055-2.768-11.418c0-5.363,0.778-8.65,2.768-11.418C222.952,60.972,226.412,59.33,230.564,59.33z
	 M283.904,54.25h-7.764l-19.297,18.786l0.03-37.753h-6.228V96.87h6.228l-0.03-15.533l7.555-7.582l14.274,23.114h7.698
	l-17.657-27.428L283.904,54.25z M313.164,52.033c-6.552,0-10.977,2.553-13.7,5.446c-3.999,4.17-5.021,9.191-5.021,17.19
	c0,8.083,1.022,13.104,5.021,17.274c2.723,2.893,7.148,5.446,13.7,5.446c6.552,0,11.062-2.553,13.785-5.446
	c3.999-4.17,5.021-9.191,5.021-17.274c0-7.999-1.022-13.02-5.021-17.19C324.226,54.586,319.716,52.033,313.164,52.033z
	 M318.355,85.475c-1.276,1.276-2.979,1.957-5.191,1.957s-3.829-0.681-5.105-1.957c-2.298-2.297-2.553-6.212-2.553-10.806
	c0-4.596,0.255-8.425,2.553-10.722c1.276-1.276,2.893-1.957,5.105-1.957s3.915,0.681,5.191,1.957
	c2.297,2.297,2.553,6.126,2.553,10.722C320.908,79.264,320.652,83.179,318.355,85.475z M361.427,52.544l-8.935,27.401l-9.021-27.401
	h-11.658l16.338,44.334h8.68l16.253-44.334H361.427z M391.904,52.033c-11.488,0-19.316,8.169-19.316,22.636
	c0,17.955,10.041,22.72,20.508,22.72c7.999,0,12.339-2.468,16.849-6.979l-6.722-6.552c-2.809,2.809-5.191,4.17-10.042,4.17
	c-6.212,0-9.7-4.17-9.7-9.87h27.741v-4.935C411.221,61.054,404.242,52.033,391.904,52.033z M383.48,70.584
	c0.084-1.958,0.341-3.148,1.022-4.765c1.191-2.639,3.659-4.595,7.402-4.595c3.745,0,6.213,1.956,7.404,4.595
	c0.681,1.617,0.936,2.807,1.022,4.765H383.48z M427.538,56.798v-4.254h-10.808v44.334h11.062v-26.72
	c0-5.616,3.745-8.169,7.149-8.169c2.723,0,4.134,0.905,5.837,2.607l8.373-8.393c-3.064-3.064-6.127-4.17-10.467-4.17
	C433.92,52.033,429.665,54.246,427.538,56.798z M452.583,47.922v48.91h11.063V61.878h8.169v-8.424h-8.169v-4.851
	c0-2.553,1.276-3.999,3.914-3.999h4.256v-9.36h-6.298C456.497,35.244,452.583,41.626,452.583,47.922z M517.359,52.033
	c-6.552,0-10.977,2.553-13.7,5.446c-3.999,4.17-5.021,9.191-5.021,17.19c0,8.083,1.022,13.104,5.021,17.274
	c2.723,2.893,7.147,5.446,13.7,5.446c6.552,0,11.062-2.553,13.785-5.446c3.999-4.17,5.021-9.191,5.021-17.274
	c0-7.999-1.022-13.02-5.021-17.19C528.421,54.586,523.911,52.033,517.359,52.033z M522.55,85.475
	c-1.276,1.276-2.979,1.957-5.191,1.957c-2.212,0-3.829-0.681-5.106-1.957c-2.298-2.297-2.553-6.212-2.553-10.806
	c0-4.596,0.255-8.425,2.553-10.722c1.276-1.276,2.893-1.957,5.106-1.957c2.212,0,3.915,0.681,5.191,1.957
	c2.297,2.297,2.553,6.126,2.553,10.722C525.103,79.264,524.847,83.179,522.55,85.475z M588.428,52.544l-7.149,27.401l-9.105-27.401
	h-8.083l-9.021,27.401l-7.147-27.401h-11.743l13.615,44.334h9.105l9.275-27.826l9.275,27.826h9.105l13.531-44.334H588.428z
	 M488.137,83.518V35.244h-11.062v48.955c0,6.297,3.829,12.679,12.934,12.679h6.296v-9.361h-4.254
	C489.243,87.517,488.137,86.156,488.137,83.518z M165.686,61.007l5.758-5.758h-11.791V41.251h-6.228v44.2
	c0,6.314,3.633,11.418,10.899,11.418h4.412v-5.363h-3.287c-3.979,0-5.796-2.336-5.796-6.228V61.007H165.686z" />
<polygon fill="#BCBBBB" points="84.072,107.351 84.072,75.8 94.588,75.8 94.588,117.869 0,117.869 0,75.8 10.516,75.8 
	10.516,107.351 " />
<path fill="#F48024" d="M22.089,72.898l51.458,10.815l2.163-10.292L24.252,62.606L22.089,72.898z M28.897,48.259l47.666,22.199
	l4.44-9.533L33.337,38.726L28.897,48.259z M42.088,24.874l40.405,33.65l6.73-8.081l-40.405-33.65L42.088,24.874z M68.171,0
	l-8.438,6.276l31.381,42.191l8.438-6.276L68.171,0z M21.044,96.833l52.582,0V86.316l-52.582,0V96.833z" />
</svg>
